<svg xmlns="http://www.w3.org/2000/svg" viewBox="0 0 4680 3120"><defs><style>.cls-1{fill:#fff;}.cls-2{fill:#e1e7ff;}.cls-3{fill:#ced7ff;}.cls-4{fill:#ecefff;}.cls-5{fill:#afbeff;}.cls-6{fill:#ffc890;}.cls-7{fill:#454b6b;}.cls-8{fill:#20307b;}.cls-9{fill:#5d6991;}.cls-10,.cls-18,.cls-19,.cls-20{fill:none;stroke-miterlimit:10;}.cls-10{stroke:#454b6b;stroke-width:18px;}.cls-11{fill:#1a4ea1;}.cls-12{fill:#ff8c3e;}.cls-13{fill:#ff9d6c;}.cls-14{fill:#361029;}.cls-15{fill:#febd57;}.cls-16{fill:#000e42;}.cls-17{fill:#4d87db;}.cls-18,.cls-19{stroke:#fff;stroke-width:5px;}.cls-18,.cls-19,.cls-20{stroke-linecap:round;}.cls-19{stroke-dasharray:18.82 18.82;}.cls-20{stroke:#20307b;stroke-width:9px;}.cls-21{opacity:0.43;}.cls-22{fill:#1a1924;}</style></defs><title>07</title><g id="_07" data-name="07"><rect id="_07-2" data-name="07" class="cls-1" width="4680" height="3120"/><path class="cls-2" d="M3512.87,1833.59q-.24,26.36-1.3,53.56c-20.63,529.06-399.72,831.55-846.59,933.52a1555.62,1555.62,0,0,1-163.4,28.11q-43,5.07-86.22,7.84c-223.32,14.34-450.09-17.08-647.47-91.31q-21.51-8.1-42.52-16.87a1190.29,1190.29,0,0,1-122-59q-36.09-20.13-69.94-42.6-16.67-11-32.72-22.64-24.4-17.65-47.37-36.57c-3.2-2.62-6.38-5.28-9.53-8l-.06,0c-47.3-40.1-87.29-80.38-120.89-120.73q-6.35-7.61-12.37-15.21l-2-2.57q-4.29-5.45-8.42-10.89c-1.2-1.59-2.39-3.16-3.57-4.74q-2.61-3.49-5.15-7-5.6-7.66-10.89-15.32c-34.08-49.33-59.22-98.61-77-147.62q-2.79-7.61-5.31-15.21c-21.14-63.43-30.28-126.33-31-188.14q-.09-7.62,0-15.22c.68-64.15,10.19-127.06,24.49-188.13q1.79-7.62,3.67-15.22c10-40.1,21.84-79.35,34.51-117.59,6.2-18.72,12.59-37.21,19-55.41,58.35-165,121-308.38,86.88-414.37-90.11-280.2-43.81-380.12-43.81-380.12s165.44-144.3,291.58-215.58,220.74,220,658.94,152.92c124.73-19.08,284.59-23.69,448.52,3.45q23.76,3.93,47.59,8.77,14.55,3,29.08,6.26,23.4,5.33,46.76,11.6c312.91,84.16,612.39,299.64,683,766.35q3.63,24,6.43,48.84,7.41,65.49,8.86,137.3Q3513.09,1809.46,3512.87,1833.59Z"/><path class="cls-3" d="M3512.87,1833.59H2690.92V806.89q23.76,3.93,47.59,8.77,14.55,3,29.08,6.26,23.4,5.33,46.76,11.6c312.91,84.16,612.39,299.64,683,766.35q3.63,24,6.43,48.84,7.41,65.49,8.86,137.3Q3513.09,1809.46,3512.87,1833.59Z"/><path class="cls-1" d="M3512.61,1786h-774.1V815.66q14.55,3,29.08,6.26,23.4,5.33,46.76,11.6c312.91,84.16,612.39,299.64,683,766.35q3.63,24,6.43,48.84Q3511.16,1714.2,3512.61,1786Z"/><path class="cls-3" d="M3503.75,1648.71H3059.06L2767.59,821.92q23.4,5.33,46.76,11.6c312.91,84.16,612.39,299.64,683,766.35Q3501,1623.84,3503.75,1648.71Z"/><path class="cls-4" d="M3497.32,1599.87H3089.74L2814.35,833.52C3127.26,917.68,3426.74,1133.16,3497.32,1599.87Z"/><path class="cls-5" d="M1556.33,1833.59v15.22H1191.6q1.79-7.62,3.67-15.22Z"/><path class="cls-5" d="M1602.2,2036.94v15.22H1167.11q-.09-7.62,0-15.22Z"/><path class="cls-5" d="M1633.52,2240.3v15.21H1203.4q-2.79-7.61-5.31-15.21Z"/><path class="cls-5" d="M1687.22,2443.65v15.21H1322.85q-6.35-7.61-12.37-15.21Z"/><path class="cls-6" d="M2016.71,2656.09s51.34,75.95,47.4,99.45,67.61,22.63,79.76,2.49,17.79-26.19,17.79-26.19-43.43-50.05-62.78-96.5S2016.71,2656.09,2016.71,2656.09Z"/><path class="cls-7" d="M2196.28,2818.77a42.79,42.79,0,0,1-2.69,14.51L1860.14,2838s-8.46-2.71-11.73-17.2a56.71,56.71,0,0,1-1.27-12.12c-.14-25.21,125-48.3,166.36-66.31,53.44-23.28,49.69-9.2,49.69-9.2s46.7,16.44,98.47-.58c0,0,18.34-29.53,31.68,57C2193.34,2789.59,2196.82,2804.71,2196.28,2818.77Z"/><path class="cls-8" d="M2196.28,2818.77a42.79,42.79,0,0,1-2.69,14.51L1860.14,2838s-8.46-2.71-11.73-17.2Z"/><path class="cls-1" d="M2014.08,2771.32a2.21,2.21,0,0,1-2.34-1.9,44,44,0,0,0-8.43-22.74,1.85,1.85,0,0,1,.55-2.82,2.55,2.55,0,0,1,3.24.47,47.09,47.09,0,0,1,9.29,24.85,2.15,2.15,0,0,1-2.19,2.14Z"/><path class="cls-1" d="M1982.49,2776.22a2.21,2.21,0,0,1-2.34-1.9c-.87-13.05-6.71-18.58-6.77-18.63a1.85,1.85,0,0,1,.08-2.86,2.58,2.58,0,0,1,3.27,0c.29.26,7.1,6.51,8.07,21.2a2.16,2.16,0,0,1-2.19,2.15Z"/><path class="cls-1" d="M2046.08,2762.8a2.21,2.21,0,0,1-2.34-1.92c-1.3-22.06-15.66-22.77-15.8-22.77a2.17,2.17,0,0,1-2.25-2.1,2.26,2.26,0,0,1,2.42-2c.77,0,18.77.88,20.29,26.61a2.17,2.17,0,0,1-2.21,2.13Z"/><path class="cls-9" d="M1237.48,1570.38H3472.1a22.13,22.13,0,0,1,22.13,22.13v8a22.13,22.13,0,0,1-22.13,22.13H1237.48a0,0,0,0,1,0,0v-52.3a0,0,0,0,1,0,0Z" transform="translate(1719.73 -1183.53) rotate(42.9)"/><rect class="cls-10" x="1283.76" y="744.7" width="435.46" height="100.76" transform="translate(-103.07 1353.66) rotate(-47.1)"/><rect class="cls-1" x="1280.3" y="715.9" width="384.59" height="101.8" transform="translate(-91.58 1323.47) rotate(-47.1)"/><path class="cls-3" d="M1370,828.93c20.16,0,38.51,10.82,57.83,16.57s44.22,4.32,54.53-13c10-16.83.71-37.86-4.49-56.74s-.82-45.74,18.62-48.07c12.49-1.49,24.77,8.94,36.83,5.41,9.09-2.66,14.26-12.41,16-21.71s1.1-19,3.6-28.14c4.69-17.19,19.54-29.62,27.38-45.62s3-41.53-14.83-42.63a874.9,874.9,0,0,0-251.9,257.79c-14.62,23,6.29,30.87,21.24,17.36C1349.23,857.13,1330,828.94,1370,828.93Z"/><path class="cls-3" d="M1369.19,891.56c4.54,3.88,12.61,6.24,19.87-.77a20.39,20.39,0,0,0,5.49-18.94c-2-9.24-16.11-32.28-31.91-20.24C1342.53,866.93,1363.64,886.82,1369.19,891.56Z"/><path class="cls-3" d="M1511.54,753.64c2.3,1.63,5.52,2.76,7.85,1.17a5,5,0,0,0,2-4.4,8,8,0,0,0-1.94-4.58c-2.37-2.89-9.83-7.46-13.37-4.29C1501.89,745.32,1508.62,751.57,1511.54,753.64Z"/><path class="cls-3" d="M1605.12,692.6c-3-10.37-30-29.2-27.39-7.33.89,7.55,7.42,15.12,14.15,18.42C1599.73,707.53,1607.71,701.65,1605.12,692.6Z"/><path class="cls-11" d="M2265.81,1013.78S2197.18,902,2221.37,902.67s88,92.44,88,92.44Z"/><path class="cls-12" d="M2090.06,1390.66s-43.76-10.33-47.18,21.5S2086,1422.8,2090.06,1390.66Z"/><path class="cls-6" d="M2578.22,1309.23c-1.06.58-69,37.93-115.68,42.47-47.05,4.57-118.29-33.33-124.18-48.37-3.65-9.33-16.87-11.61-38.11-13.87-13-1.39-28.93-2.75-47.51-5.74a32.65,32.65,0,0,1-7.25-2c-15.1-6.17-23-20.88-27-35.93-6.25-23.77,4.33-56.87-15.25-75.25-6.53-6.13-15.68-10.07-21.52-16.79a10.26,10.26,0,0,1-2.75-8.12c.42-2.56,2.11-4.72,4-6.53,8-7.73,19.16-10.76,27.45-18a46.74,46.74,0,0,0,15.6-27.34c1.66-9.85.08-19.81.77-29.71,2-29.16,23.42-55.73,46.85-71.43a153.71,153.71,0,0,1,36.63-18s142.49,58.83,161.45,84.32,38.56,117,37.91,141.84c-.12,4.63,2.19,11.31,6,19.11,8.89,18.06,26,42.14,40.06,60.74l.07.09c11.4,15.07,20.8,26.54,22.27,28.32A2.27,2.27,0,0,1,2578.22,1309.23Z"/><path class="cls-13" d="M2515.64,1219.83c-25,14-63.66-7.63-82.59-23.6-20-16.88-30.24-10.2-53-13s-38.89-9.82-13.75-9.68,35.73-6.42,46.33-27,2.75-61.92-13.34-68.2-33.57,24.82-33.57,24.82-7.67,11.7-23,25-16.09,14.13-13.73-6.29-1.19-65.58-28.74-97c-13.8-15.74-21.95-26.06-26.63-32.44a153.71,153.71,0,0,1,36.63-18s142.49,58.83,161.45,84.32,38.56,117,37.91,141.84C2509.49,1205.35,2511.8,1212,2515.64,1219.83Z"/><path class="cls-14" d="M2334.26,1051.16s6.52,64.87-5.86,85.73,21.81-4.5,37.31-33.64S2335.61,1034.12,2334.26,1051.16Z"/><path class="cls-14" d="M2439.24,1150.68s-14.44,20,10.69,41.63,66.37,22,71.87,15.7-11-35.73-8.25-57.33S2439.24,1150.68,2439.24,1150.68Z"/><path class="cls-13" d="M2578.23,1309.22h0c-1.06.58-69,37.93-115.68,42.47-47.05,4.57-118.29-33.33-124.18-48.37-3.65-9.33-16.87-11.61-38.11-13.87,0,0,66.83-7.23,90.78-20.58s-2,19.07,43.2,35.07,121.47-23.38,121.47-23.38l.07.09L2578,1309Z"/><path class="cls-6" d="M2094.84,1618.34c-9.57,26.67-63.67,10-63.67,10s-144.18-34.62-166.75-55.13c-4.71-4.29-7-18.53-7.69-38.38-2.59-75.2,18-230.89,18-230.89s51.28-39.09,58.8-26.86,50.6,143,50.6,143c38.28-3.42,95-13.67,95-13.67S2104.41,1591.68,2094.84,1618.34Z"/><path class="cls-6" d="M2994.37,1690.31c-10.32,18.58-238.9,210-272.63,206.55-24.52-2.5-14.87-45.36-7.75-68.6,2.67-8.74,5-14.71,5-14.71s106.71-126.69,106-130.12-76.43-53-76.43-53l117.74-111.54s11.11,8.57,26.61,21.09c30,24.19,76.36,63.13,90.42,83.29C3004.7,1653.82,3004.7,1671.72,2994.37,1690.31Z"/><path class="cls-13" d="M2836.71,1683.43c-1.38,19.27-101.9,146-115.67,150.09-1.58.48-4-1.42-7.05-5.26,2.67-8.74,5-14.71,5-14.71s106.71-126.69,106-130.12-76.43-53-76.43-53l117.74-111.54s11.11,8.57,26.61,21.09c0,0-36.25,84.94-60.35,96.65S2838.08,1664.15,2836.71,1683.43Z"/><path class="cls-15" d="M2898,1505.79s-26.55,51.37-55.88,89.63c-2.69,3.53-5.42,6.95-8.16,10.2-32.35,38.56-125.3,64.72-137,63.34-1.5-.18-6-1.86-12.89-4.74-46.58-19.59-199.13-94.41-212.94-122.62-15.84-32.37-84-231.29-84-231.29s37.86,15.78,93.63,12.35,88.7-23.72,77.51-38.71c0,0,2.36-11.56,14.75-4.68s22.72,26.17,43.37,37.18S2892.48,1492.71,2898,1505.79Z"/><path class="cls-12" d="M2411.83,1317.51s50.34,36.13,62.73,104.29,23.05,112.22,54.56,126.68,105.86,8.26,102.42-15.15-32.29-229.39-32.29-229.39l12.67,9.9s50.6,234,38.9,255.29-140.46,50.95-165.24,11-98.46-269.84-98.46-269.84Z"/><path class="cls-12" d="M2842.11,1595.42c-2.69,3.53-5.42,6.95-8.16,10.2-32.35,38.56-125.3,64.72-137,63.34-1.5-.18-6-1.86-12.89-4.74-14.82-66.29-10.28-253.32-10.28-253.32s27.3,61.85,43.82,123.12S2804.83,1622.41,2842.11,1595.42Z"/><path class="cls-13" d="M2094.84,1618.34c-9.57,26.67-63.67,10-63.67,10s-144.18-34.62-166.75-55.13c-4.71-4.29-7-18.53-7.69-38.38v0c17,36.46,159.83,89.87,179.06,62.59s32.69-174.7,6.9-169.55-32.82,9.11-31.6,29.17-10.95,43.15-12.16,23.09-14.86-60.1-14.86-60.1c38.28-3.42,95-13.67,95-13.67S2104.41,1591.68,2094.84,1618.34Z"/><path class="cls-16" d="M2178.51,1818.37c-2.75,0-65.4,24.09-35.11,55.08s73.67,3.44,69.54-23.41S2178.51,1818.37,2178.51,1818.37Z"/><path class="cls-15" d="M2439.45,1799.09c-31.67,57.84-240,130.82-265.27,108.78s-12.88-39.93-12.88-39.93l6.19-36.49,2.07-26.85,22-152.16s-180.39,8.26-160.43-24.09c0,0,11,13.07,22.73-9.64s33.73-184.52,19.27-212.06-30.29,5.51-30.29,5.51-10.33-21.35,24.79-32.37c30.75-9.65,140.71-46.22,191.14-57a144.82,144.82,0,0,1,17.46-2.88s33.05-16.52,49.58-6.2,97.76,51.64,109.47,141.83S2471.12,1741.26,2439.45,1799.09Z"/><path class="cls-12" d="M2439.45,1799.09c-31.67,57.84-240,130.82-265.27,108.78s-12.88-39.93-12.88-39.93l6.19-36.49,2.07-26.85,22-152.16s72.28-9.64,77.11,0-31.13,6.2-55.5,46.82-45.72,147.28-3.71,153.5,143.89-28.2,172.8-152.13,18.23-276.08-7.05-310.5-116.44-67.35-116.44-67.35a144.82,144.82,0,0,1,17.46-2.88s33.05-16.52,49.58-6.2,97.76,51.64,109.47,141.83S2471.12,1741.26,2439.45,1799.09Z"/><path class="cls-11" d="M2744.45,2338.86c-14.9,79.3-59.83,358.93-79.47,481.81a1555.62,1555.62,0,0,1-163.4,28.11q-43,5.07-86.22,7.84c-12.18-69.89-33-205.81-42-254.06-12.4-66.1-70.23-257.5-70.23-257.5s-97.53,10.19-177.24,18c-48.08,4.72-89.69,8.58-99.53,8.84,0,0,66.09,192.09,70.91,191.4s8.95-11.7,14.46-6.19,15.83,33.05,13.08,38.55-92.26,77.12-153.53,63.35c0,0-32.24-28.24-13.37-31.68,0,0-224.16-201.73-275.11-302.25s-54.39-167.3,27.54-218.25,393.81-165.92,402.77-181.76a18.93,18.93,0,0,0,1.61-4.17c6.13-22.13.41-90.07,54.84-116.31l-2.07,26.85s-33,15.14-6.19,36.49,171.43,30.3,221-103.27,44.07-300.18,9.64-367.66-100.52-84-115.67-77.11a17.21,17.21,0,0,1,2.59-9.59h0c2.42-4,7.08-8.22,16-10.38,20-4.81,73.66-7.57,89.5,0s66.1,70.92,90.88,159,10.33,94.32,48.2,105.33,112.22,6.89,118.42-4.81-35.12-242.35-37.87-249.93,4.82-13.77,34.42,12.39,59.91,195.67,75,301.29,42.69,301.83,47.5,408.55S2763.73,2236.28,2744.45,2338.86Z"/><path class="cls-17" d="M2528.51,1138.72c-.9,13.31-2.56,22.38-3.39,24.6-3.51,9.4-72.3,23.51-112.5-16.69,0,0,11.29-26.81-10.23-43.38s-36.68,0-36.68,0-109.52-188.13-144.34-200.59c0,0,13.83-12.45,66.74,50.69l.09-.05c.55-.28,3.51-1.79,8.49-3.81,23.52-9.52,92-30.12,162.84,15.85C2526.31,1008.69,2531.4,1095.77,2528.51,1138.72Z"/><path class="cls-11" d="M2528.51,1138.72c-.9,13.31-2.56,22.38-3.39,24.6-3.51,9.4-72.3,23.51-112.5-16.69,0,0,11.29-26.81-10.23-43.38s-36.68,0-36.68,0-19.48-50.7-32.69-76.35-44.91-73.55-44.91-73.55l.09-.05,8.49-3.81s95.4,135.71,131.54,164.08C2453.05,1133.05,2501.33,1135.85,2528.51,1138.72Z"/><path class="cls-8" d="M2335.48,1861.74c-95.11,53.4-172.78,63.07-220.76,59.17,6.13-22.13.41-90.07,54.84-116.31l-2.07,26.85s-33,15.14-6.19,36.49,171.43,30.3,221-103.27,44.07-300.18,9.64-367.66-100.52-84-115.67-77.11a17.21,17.21,0,0,1,2.59-9.59h0s47-17.27,104.13,59.16S2492.46,1773.61,2335.48,1861.74Z"/><path class="cls-17" d="M1949.21,1207.42c-8.2,43.07,0,82,0,82-44.45,36.92-84.79,14.48-84.79,14.48s14.36-67.82,10.86-75.34-35.48-31.44-48.46-43.7-2.73-17.15-8.21-21.59-15.72-12-17.77-27.7a69.26,69.26,0,0,1-.66-10.24c.13-9.32,2.83-14.06,7.5-11,6.14,4.1,57.43,9.58,60.85,6.16s0-10.95-4.11-26-29.4-26-29.4-26c19.83-20.51,52.65-3.42,69.06,10.26S1957.42,1164.35,1949.21,1207.42Z"/><path class="cls-11" d="M1818.73,1163.16a19,19,0,0,1,6.68,1.5,27.11,27.11,0,0,1,5.56,3.09,27.42,27.42,0,0,1,4.7,4.27,19.39,19.39,0,0,1,3.57,5.84l-.23.32c-1.76-1.16-3.49-2.35-5.21-3.56l-5.16-3.62-5.09-3.73c-1.71-1.23-3.39-2.5-5-3.78Z"/><path class="cls-11" d="M1875.28,1125.37c-7.44,5.47-64.12,9.57-75.1,0,.13-9.32,2.83-14.06,7.5-11,6.14,4.1,57.43,9.58,60.85,6.16s0-10.95-4.11-26-29.4-26-29.4-26a45.34,45.34,0,0,1,31.46,19.15C1878.78,1105.55,1882.71,1119.9,1875.28,1125.37Z"/><path class="cls-8" d="M2542.41,2334.93c-44.77,26.71-102.06,179.87-89.13,280.4,8.93,69.44,33.78,174.87,48.3,233.45q-43,5.07-86.22,7.84c-12.18-69.89-33-205.81-42-254.06-12.4-66.1-70.23-257.5-70.23-257.5s216.5-33.68,273.83-73.74S2587.17,2308.24,2542.41,2334.93Z"/><path class="cls-8" d="M2125.89,2363.07c-48.08,4.72-89.69,8.58-99.53,8.84,0,0-60.75-132.2-105.11-156.52s108.68-30.91,168.8,78.26C2105.53,2321.76,2117.5,2344.72,2125.89,2363.07Z"/><path class="cls-8" d="M1946.21,2616.68s82.26-30.22,108.73-55.4,26.93-33.58,26.93-33.58l15.4,35.61s-86.57,58.82-139.36,64Z"/><path class="cls-18" d="M2001.29,2541.8s-2.25-2.53-6.22-7.18"/><path class="cls-19" d="M1983,2520.22c-58.06-70.27-227.2-290.91-107.68-342.78,135.28-58.7,327.46-78.87,433.81-131.55"/><path class="cls-18" d="M2317.47,2041.58q4.25-2.28,8.28-4.64"/><path class="cls-20" d="M2147.16,1950.35s257.65,110.81,592.73,52.07"/><ellipse class="cls-14" cx="2251.9" cy="1106.12" rx="10.66" ry="6.95" transform="translate(450.64 2852.54) rotate(-70.27)"/><path class="cls-12" d="M2228.83,1218.62c5.59-2,11-3.52,16.28-5.1s10.52-3.1,15.66-4.74,10.17-3.45,15.16-5.51c2.51-1,5-2.15,7.49-3.32s5-2.53,7.66-3.87a31.15,31.15,0,0,1-5,7.39,44,44,0,0,1-6.68,6,57.07,57.07,0,0,1-15.89,7.91,68.21,68.21,0,0,1-17.27,3.13A51,51,0,0,1,2228.83,1218.62Z"/><path class="cls-14" d="M2252.74,1067.6a40.63,40.63,0,0,1,11.81.16c8.45,1.72,15.49,8.27,20.12,15.3,2.57,3.91-3.31,3.17-5.39,2.5-9.93-3.19-13.74-13.08-25.42-12.1-2.4.2-13.77,2.8-15-.37C2237.11,1068.81,2250.78,1067.78,2252.74,1067.6Z"/><path class="cls-13" d="M2380.07,1118.23a17.28,17.28,0,0,0-5.7.21,11.37,11.37,0,0,0-4.74,2.81c-6,5.7-6.85,15.65-3.05,23,1.36,2.64,3.39,5.13,6.2,6.08,3,1,6.34.05,8.89-1.79a24.18,24.18,0,0,0,6-7.14c2.65-4.33,6.29-11.53,4.8-16.87S2384.64,1118.58,2380.07,1118.23Z"/><g class="cls-21"><path class="cls-13" d="M2275.08,1127.65c-1.53.06-3,.19-4.47.36-5.33.62-10.64,2.76-14.21,6.78a17,17,0,0,0,16.38,28c8.51-1.91,15.65-10.2,19.29-17.75,1.25-2.61,2.22-5.53,1.66-8.37-.74-3.73-4.05-6.54-7.65-7.78A31.09,31.09,0,0,0,2275.08,1127.65Z"/></g><path class="cls-5" d="M1767.89,2765.31q-21.51-8.1-42.52-16.87l-61.55-289.58-3.24-15.21-40-188.14-3.23-15.21-40-188.14-3.23-15.22-40-188.13-3.24-15.22-25-117.59-5.61-26.42,37.26-7.92,7.3,34.34Z"/><path class="cls-22" d="M1449.91,2204.76c-93.45,0-169.48,76-169.48,169.48v28.89q5.29,7.65,10.89,15.32v-44.21c0-87.44,71.15-158.59,158.59-158.59s158.61,71.15,158.61,158.59v56H1300q4.13,5.45,8.42,10.89H1614a5.44,5.44,0,0,0,5.43-5.44v-61.4C1619.39,2280.79,1543.36,2204.76,1449.91,2204.76Z"/><path class="cls-11" d="M1603.36,2388.76V2689.4q-36.09-20.13-69.94-42.6-16.67-11-32.72-22.64-24.4-17.65-47.37-36.57a8.25,8.25,0,0,1-5.88-1.22,9.37,9.37,0,0,1-3.71-6.78c-47.3-40.1-87.29-80.38-120.89-120.73q-6.35-7.61-12.37-15.21l-2-2.57q-4.29-5.45-8.42-10.89h-3.57v-41.43Z"/><path class="cls-15" d="M1603.36,2388.76v2.78c0,8.69-.12,20.59-3.33,27.78q-2.41,5.35-4.48,10.87t-3.74,10.89a197.79,197.79,0,0,0-6.66,88.57c.94,6.07,2.16,12.3.95,18.33s-5.58,11.93-11.68,12.75c-7.4,1-13.91-6-15.36-13.31s.66-14.81,2.39-22.07a207.59,207.59,0,0,0,4.93-64.2c-.59-7.36-3.13-16.42-10.42-17.62-7.87-1.28-13.11,7.79-15.5,15.41a243.33,243.33,0,0,0-3.6,131.75c3.63,14.29,8.58,29.23,4.59,43.44a27.66,27.66,0,0,1-8,12.67q-16.67-11-32.72-22.64a125,125,0,0,1,3.43-14.45,228.81,228.81,0,0,0-6.6-145c-3.29-8.46-7.32-17-13.31-23.66a38.72,38.72,0,0,0-6.92-6.16,29.5,29.5,0,0,0-11.63-4.73,27.54,27.54,0,0,0-10.08,0,19.64,19.64,0,0,0-14.53,10.89c-7.08,14.41,3.87,34.64-.38,51.41-2.29,9-9.57,16.75-18.63,18.8s-19.39-2.22-23.7-10.43c-7.1-13.57,3.07-29.44,4.48-44.68a35.6,35.6,0,0,0-1.59-15.1,31.15,31.15,0,0,0-6.51-10.89c-8-8.86-20.58-14.05-32.64-18.28-13.71-4.81-32.31-19.15-49.54-23.15-5.48-1.27-10.82-1.5-15.83,0C1296.72,2357.5,1603.36,2357.56,1603.36,2388.76Z"/><path class="cls-15" d="M1478,2550.78c-1,3.84-2.74,7.65-5.84,10.12a10.89,10.89,0,0,1-5.19,2.23,8.23,8.23,0,0,1-5.87-1.23,9.29,9.29,0,0,1-3.71-6.77,30.37,30.37,0,0,1,.52-9.11c1.14-6.24,4.74-42,11.15-39.86C1478.85,2509.46,1480,2543.16,1478,2550.78Z"/><path class="cls-22" d="M1505.85,1455.73H1242.07a4.36,4.36,0,0,1-4.37-4.37V1402c0-75.14,61.12-136.26,136.26-136.26s136.27,61.12,136.27,136.26v49.36A4.37,4.37,0,0,1,1505.85,1455.73Zm-259.4-8.75h255v-45a127.51,127.51,0,0,0-255,0Z"/><path class="cls-5" d="M1497.33,1660.59s-241.75-.43-246.74,0V1413.67h246.74Z"/><path class="cls-11" d="M1341.61,1472.64c-3.65,5.16-8.55,10-10,17.33-.7,3.5,0,7.13,1.08,10.54,2.78,9,8.81,13.94,18.85,11.68,6.53-1.48,13.44-6.87,14.12-14,.82-8.74-5.91-17.22-6.32-26a30.53,30.53,0,0,1,1.2-9.35c1.36-5,3.74-10,7.81-13.29,7.51-6,21.4-3.84,28.33,2,11.77,9.94,16.38,23.43,20.25,37.82,4.38,16.31,7.88,33.31,9.17,50.17,1.35,17.68-4.22,34.14-8.57,51-2.64,10.21-7.49,26.12,2.86,33.75,9.55,7,23.95-1.92,27.15-13.34s-.78-23.43-3.7-34.92a195.6,195.6,0,0,1,2.9-105.92c1.92-6.13,6.13-13.43,12.47-12.39,5.85,1,7.9,8.24,8.37,14.16a166.84,166.84,0,0,1-4,51.61c-1.38,5.84-3.09,11.87-1.92,17.75s6.4,11.49,12.35,10.7c4.91-.66,8.42-5.4,9.39-10.25s0-9.85-.76-14.74a159,159,0,0,1,12-88.7c2.87-6.43,2.68-17.52,2.68-24.57,0-25.09-246.51-25.13-246.53,0,0-3.64,17.13,2.07,19.28,2.3,14.93,1.55,30.73.8,44.94,6.32C1333.93,1429.59,1356.39,1451.8,1341.61,1472.64Z"/><path class="cls-11" d="M1369.42,1559.77c-.82,4.53-1.23,10.16,2.57,12.77,2.62,1.81,6.39,1.19,8.89-.8s3.89-5,4.69-8.14c1.59-6.13.66-33.22-7.2-35.87C1373.23,1526,1370.34,1554.76,1369.42,1559.77Z"/><path class="cls-11" d="M1302.28,1462.5c-.83,2.59-1.23,5.81,2.57,7.31a12.53,12.53,0,0,0,8.88-.46,9.13,9.13,0,0,0,4.7-4.66c1.59-3.5.66-19-7.2-20.52C1306.09,1443.17,1303.2,1459.63,1302.28,1462.5Z"/><path class="cls-1" d="M1565.52,1660.59V1716H1229.78c6.2-18.72,12.59-37.21,19-55.41Z"/><rect class="cls-1" x="3076.44" y="1095.81" width="39.58" height="332.09" rx="9"/><rect class="cls-1" x="3155.83" y="1176.33" width="39.58" height="275.57" rx="9"/><path class="cls-2" d="M1915.06,315.61c-71.34,57.09-112.48,151.11-97.31,243,5.83,35.35,19.63,70,43.35,96.8,41.2,46.64,107,64.27,169.19,65,80.37.89,163.21-24.47,220.65-80.68,59.12-57.85,85.56-149.09,53.33-227.21-51.54-124.91-195-183.75-321.28-135.82A251.81,251.81,0,0,0,1915.06,315.61Z"/></g></svg>